<?xml version="1.0" encoding="UTF-8"?>
<svg version="1.1" xmlns="http://www.w3.org/2000/svg" width="500" height="500">
<path d="M0 0 C1.875 0.8125 1.875 0.8125 2.875 2.8125 C2.94496014 4.51952735 2.95940154 6.22918003 2.9375 7.9375 C2.92847656 8.84757813 2.91945312 9.75765625 2.91015625 10.6953125 C2.89855469 11.39398438 2.88695312 12.09265625 2.875 12.8125 C3.77742432 12.79678955 4.67984863 12.7810791 5.60961914 12.76489258 C8.98484134 12.71350646 12.35964271 12.6760259 15.73510742 12.64770508 C17.19090368 12.63269687 18.64665532 12.61228367 20.10229492 12.58618164 C22.20502789 12.54944324 24.30715885 12.5326944 26.41015625 12.51953125 C27.672229 12.5038208 28.93430176 12.48811035 30.23461914 12.47192383 C35.11657857 12.928656 39.07636333 14.2360057 42.8359375 17.53125 C43.53589844 18.41296875 43.53589844 18.41296875 44.25 19.3125 C44.73210937 19.9003125 45.21421875 20.488125 45.7109375 21.09375 C48.11910743 24.64943714 48.01609992 27.92094402 48.05200195 32.0847168 C48.07125481 34.02769905 48.07125481 34.02769905 48.09089661 36.00993347 C48.09906613 37.42719133 48.10650946 38.84445353 48.11328125 40.26171875 C48.11735678 40.97713144 48.1214323 41.69254414 48.12563133 42.429636 C48.14648056 46.21895685 48.16078518 50.00824165 48.17016602 53.79760742 C48.1812066 57.69696094 48.21558176 61.59574006 48.25533772 65.49489117 C48.28158466 68.50536604 48.28986512 71.51570596 48.29344749 74.52628517 C48.29829548 75.96270422 48.30985817 77.39911797 48.32848549 78.83542442 C48.42616806 86.86914134 48.44259343 93.03206728 43.875 99.8125 C38.9436433 103.81922732 35.11462873 104.94810749 28.890625 104.91015625 C27.95605469 104.90693359 27.02148438 104.90371094 26.05859375 104.90039062 C25.09050781 104.89201172 24.12242187 104.88363281 23.125 104.875 C22.14144531 104.87048828 21.15789062 104.86597656 20.14453125 104.86132812 C17.72129209 104.84956483 15.29817727 104.83312684 12.875 104.8125 C12.65070313 105.48667969 12.42640625 106.16085938 12.1953125 106.85546875 C10.49909831 110.65438632 8.20664843 113.78409576 5.75 117.125 C5.28207031 117.77017578 4.81414062 118.41535156 4.33203125 119.08007812 C3.1844071 120.66098894 2.03034523 122.23722301 0.875 123.8125 C-2.38829161 123.51583713 -3.76579604 123.20904325 -6.00390625 120.73828125 C-6.83728516 119.44470703 -6.83728516 119.44470703 -7.6875 118.125 C-8.27789062 117.22394531 -8.86828125 116.32289063 -9.4765625 115.39453125 C-10.02054688 114.54246094 -10.56453125 113.69039063 -11.125 112.8125 C-11.93536168 111.64434705 -12.74739523 110.47734831 -13.5625 109.3125 C-15.125 106.8125 -15.125 106.8125 -15.125 104.8125 C-15.71925781 104.82821045 -16.31351563 104.8439209 -16.92578125 104.86010742 C-19.65875454 104.92306569 -22.39157455 104.96168095 -25.125 105 C-26.05957031 105.02513672 -26.99414062 105.05027344 -27.95703125 105.07617188 C-34.08427403 105.14044365 -38.56416651 104.44228469 -44.125 101.8125 C-49.02287345 96.91462655 -50.36991391 92.11761764 -50.41552734 85.31323242 C-50.42828705 84.01806198 -50.44104675 82.72289154 -50.45419312 81.38847351 C-50.45725126 79.98164012 -50.45947876 78.57480471 -50.4609375 77.16796875 C-50.46737068 75.71454234 -50.47409943 74.26111722 -50.48110962 72.80769348 C-50.49306671 69.76393637 -50.49679214 66.7202926 -50.49560547 63.67651367 C-50.49540253 59.79286811 -50.52268425 55.90995642 -50.55714989 52.02648449 C-50.5794855 49.02456889 -50.58344097 46.02282794 -50.58238602 43.02083778 C-50.58473275 41.59001452 -50.59350364 40.15918577 -50.60905075 38.72844505 C-50.68795047 30.71667671 -50.670556 24.57634079 -46.125 17.8125 C-40.39125882 13.15383529 -36.18232136 12.6852159 -28.953125 12.71484375 C-28.2707074 12.7162587 -27.58828979 12.71767365 -26.88519287 12.71913147 C-24.71508316 12.72470916 -22.5450783 12.73725746 -20.375 12.75 C-18.89974108 12.75501789 -17.42448053 12.75958029 -15.94921875 12.76367188 C-12.34111202 12.77467125 -8.73306625 12.79192047 -5.125 12.8125 C-5.15980469 12.12542969 -5.19460937 11.43835938 -5.23046875 10.73046875 C-5.25753906 9.82941406 -5.28460938 8.92835938 -5.3125 8 C-5.36470703 6.66001953 -5.36470703 6.66001953 -5.41796875 5.29296875 C-5.125 2.8125 -5.125 2.8125 -3.74609375 0.9765625 C-2.125 -0.1875 -2.125 -0.1875 0 0 Z M-42.125 25.8125 C-43.2900499 28.1425998 -43.2459358 29.48497077 -43.23852539 32.07861328 C-43.23840454 32.97169189 -43.23828369 33.86477051 -43.23815918 34.78491211 C-43.23304321 35.72471924 -43.22792725 36.66452637 -43.22265625 37.6328125 C-43.22164917 38.49575928 -43.22064209 39.35870605 -43.21960449 40.24780273 C-43.21436435 43.4777153 -43.20040312 46.70760896 -43.1875 49.9375 C-43.166875 57.15625 -43.14625 64.375 -43.125 71.8125 C-15.405 71.8125 12.315 71.8125 40.875 71.8125 C40.936875 64.84125 40.99875 57.87 41.0625 50.6875 C41.08981201 48.49722168 41.11712402 46.30694336 41.14526367 44.05029297 C41.1540308 42.30176341 41.16167421 40.55322771 41.16796875 38.8046875 C41.18331665 37.90693604 41.19866455 37.00918457 41.21447754 36.08422852 C41.21662722 30.91209561 40.83946494 27.25334393 37.875 22.8125 C34.20611705 20.36657803 32.38181411 20.54314621 28.00439453 20.50610352 C26.96239899 20.49361824 26.96239899 20.49361824 25.89935303 20.48088074 C23.60211589 20.45677864 21.30516268 20.44800848 19.0078125 20.44140625 C17.40981969 20.43243993 15.81182774 20.42331808 14.21383667 20.41404724 C10.86307739 20.39755405 7.51241807 20.38985657 4.16162109 20.38696289 C-0.12828073 20.38157918 -4.41724085 20.34390226 -8.70687675 20.29821873 C-12.00806086 20.26844878 -15.30901819 20.26123936 -18.61032486 20.26023674 C-20.19157346 20.25603411 -21.77282272 20.24359792 -23.35393906 20.22271919 C-25.56852827 20.19580394 -27.78093519 20.20062801 -29.99560547 20.21313477 C-31.88398636 20.20552879 -31.88398636 20.20552879 -33.81051636 20.19776917 C-38.00707382 20.97609652 -39.46168341 22.55708145 -42.125 25.8125 Z M-43.125 78.8125 C-43.85664411 88.17448249 -43.85664411 88.17448249 -40.125 94.8125 C-37.9175295 97.0199705 -37.12287534 97.31513357 -34.125 97.8125 C-32.42220986 97.80065958 -30.71938236 97.73741973 -29.01953125 97.63671875 C-13.4110222 97.15564775 -13.4110222 97.15564775 -9.16992188 100.22949219 C-5.87153252 103.95514474 -3.89357901 108.19752109 -2.125 112.8125 C-1.135 112.4825 -0.145 112.1525 0.875 111.8125 C1.79470403 109.64712088 2.7107936 107.4802059 3.625 105.3125 C5.00876431 102.58488067 6.37476834 100.61000784 8.875 98.8125 C14.66797035 97.29651974 20.60434842 97.67568207 26.5390625 97.8671875 C31.08230521 97.9753225 34.04005532 97.47081392 37.875 94.8125 C41.91279296 89.29418296 40.875 86.37614414 40.875 78.8125 C13.155 78.8125 -14.565 78.8125 -43.125 78.8125 Z " fill="#190697" transform="translate(251.125,126.1875)"/>
<path d="M0 0 C1.51400391 0.01740234 1.51400391 0.01740234 3.05859375 0.03515625 C4.07050781 0.04417969 5.08242187 0.05320312 6.125 0.0625 C7.29869141 0.07990234 7.29869141 0.07990234 8.49609375 0.09765625 C11.09196648 5.78051277 12.93622679 11.54233476 14.68359375 17.53515625 C14.95623047 18.45748047 15.22886719 19.37980469 15.50976562 20.33007812 C16.17568186 22.58484713 16.83769046 24.84068429 17.49609375 27.09765625 C17.8971936 25.92408569 17.8971936 25.92408569 18.30639648 24.72680664 C19.51244584 21.20354879 20.7229574 17.68184044 21.93359375 14.16015625 C22.35447266 12.92845703 22.77535156 11.69675781 23.20898438 10.42773438 C23.81323242 8.67299805 23.81323242 8.67299805 24.4296875 6.8828125 C24.80150146 5.7987915 25.17331543 4.71477051 25.55639648 3.59790039 C26.49609375 1.09765625 26.49609375 1.09765625 27.49609375 0.09765625 C29.32725258 -0.00085546 31.16229308 -0.03207004 32.99609375 -0.02734375 C33.99640625 -0.02992188 34.99671875 -0.0325 36.02734375 -0.03515625 C38.49609375 0.09765625 38.49609375 0.09765625 39.49609375 1.09765625 C39.58474583 3.98199445 39.61130671 6.84227783 39.59375 9.7265625 C39.59233505 10.5907933 39.5909201 11.45502411 39.58946228 12.34544373 C39.58384614 15.11704917 39.57129094 17.88857505 39.55859375 20.66015625 C39.55358083 22.53450405 39.54901756 24.4088531 39.54492188 26.28320312 C39.53387147 30.88805169 39.51659605 35.49284046 39.49609375 40.09765625 C36.52609375 40.09765625 33.55609375 40.09765625 30.49609375 40.09765625 C30.16609375 32.83765625 29.83609375 25.57765625 29.49609375 18.09765625 C27.18609375 25.35765625 24.87609375 32.61765625 22.49609375 40.09765625 C19.19609375 40.09765625 15.89609375 40.09765625 12.49609375 40.09765625 C9.03109375 28.71265625 9.03109375 28.71265625 5.49609375 17.09765625 C5.49609375 24.68765625 5.49609375 32.27765625 5.49609375 40.09765625 C2.52609375 40.09765625 -0.44390625 40.09765625 -3.50390625 40.09765625 C-3.528554 34.56177092 -3.54674121 29.02591725 -3.55883789 23.48999023 C-3.56387869 21.60521895 -3.57071123 19.7204516 -3.5793457 17.83569336 C-3.59142242 15.13263989 -3.59713693 12.42963794 -3.6015625 9.7265625 C-3.60672379 8.87864639 -3.61188507 8.03073029 -3.61720276 7.15711975 C-3.6173982 5.13694557 -3.56596836 3.11687691 -3.50390625 1.09765625 C-2.50390625 0.09765625 -2.50390625 0.09765625 0 0 Z " fill="#010101" transform="translate(187.50390625,280.90234375)"/>
<path d="M0 0 C-0.8125 3.4375 -0.8125 3.4375 -2 7 C-5 8 -5 8 -8 7 C-12.41068687 6.64429945 -14.91455706 6.45727853 -18.875 8.4375 C-21.85560381 12.03175753 -22.69590343 15.37617268 -23 20 C-22.39859455 23.72871377 -21.85045932 26.01870078 -19.375 28.875 C-15.9397699 30.50221426 -12.78352059 30.68470662 -9 31 C-9 28.36 -9 25.72 -9 23 C-11.64 23 -14.28 23 -17 23 C-17 20.69 -17 18.38 -17 16 C-11.39 16 -5.78 16 0 16 C0 22.93 0 29.86 0 37 C-8.0551629 39.30147511 -16.59765871 40.95470395 -24.5625 37.375 C-28.61095902 34.96642312 -31.14206565 31.69471998 -32.58203125 27.171875 C-33.95453893 20.03996593 -34.20223492 11.22707419 -30 5 C-21.89383541 -2.86521703 -10.49288668 -4.66350519 0 0 Z " fill="#010101" transform="translate(142,283)"/>
<path d="M0 0 C1.51400391 0.01740234 1.51400391 0.01740234 3.05859375 0.03515625 C4.07050781 0.04417969 5.08242188 0.05320312 6.125 0.0625 C7.29869141 0.07990234 7.29869141 0.07990234 8.49609375 0.09765625 C10.3534866 5.30998393 12.20473381 10.52443732 14.05029297 15.7409668 C14.67913622 17.51565529 15.30966154 19.28974869 15.94189453 21.06323242 C16.84979924 23.61092419 17.75165449 26.16068734 18.65234375 28.7109375 C18.93670288 29.50478348 19.22106201 30.29862946 19.51403809 31.11653137 C20.60686792 34.22594178 21.49609375 36.77619304 21.49609375 40.09765625 C18.19609375 40.09765625 14.89609375 40.09765625 11.49609375 40.09765625 C10.83609375 37.12765625 10.17609375 34.15765625 9.49609375 31.09765625 C4.87609375 31.09765625 0.25609375 31.09765625 -4.50390625 31.09765625 C-5.16390625 34.06765625 -5.82390625 37.03765625 -6.50390625 40.09765625 C-9.80390625 40.09765625 -13.10390625 40.09765625 -16.50390625 40.09765625 C-14.25838483 31.3683776 -11.43910543 22.94773238 -8.37890625 14.47265625 C-7.91895926 13.18240269 -7.45932203 11.89203867 -7 10.6015625 C-3.24053838 0.12638605 -3.24053838 0.12638605 0 0 Z M2.49609375 10.09765625 C0.01261548 16.45720022 0.01261548 16.45720022 -1.50390625 23.09765625 C1.13609375 23.09765625 3.77609375 23.09765625 6.49609375 23.09765625 C6.21127007 21.67959794 5.91791231 20.26325246 5.62109375 18.84765625 C5.45867187 18.05875 5.29625 17.26984375 5.12890625 16.45703125 C4.504593 14.12934481 3.64770833 12.20733673 2.49609375 10.09765625 Z " fill="#010101" transform="translate(351.50390625,280.90234375)"/>
<path d="M0 0 C1.875 0.8125 1.875 0.8125 2.875 2.8125 C2.94496014 4.51952735 2.95940154 6.22918003 2.9375 7.9375 C2.92847656 8.84757813 2.91945312 9.75765625 2.91015625 10.6953125 C2.89855469 11.39398438 2.88695312 12.09265625 2.875 12.8125 C3.77742432 12.79678955 4.67984863 12.7810791 5.60961914 12.76489258 C8.98484134 12.71350646 12.35964271 12.6760259 15.73510742 12.64770508 C17.19090368 12.63269687 18.64665532 12.61228367 20.10229492 12.58618164 C22.20502789 12.54944324 24.30715885 12.5326944 26.41015625 12.51953125 C27.672229 12.5038208 28.93430176 12.48811035 30.23461914 12.47192383 C34.4363955 12.86502141 37.10955181 13.97326418 40.875 15.8125 C40.215 16.1425 39.555 16.4725 38.875 16.8125 C37.98385498 16.50787842 37.09270996 16.20325684 36.17456055 15.8894043 C32.6018759 14.72335827 29.83101822 14.56886785 26.08203125 14.58203125 C25.43001236 14.58212692 24.77799347 14.5822226 24.10621643 14.58232117 C21.9664597 14.58604954 19.82716218 14.60504257 17.6875 14.625 C16.19287281 14.63189392 14.69824378 14.63839794 13.20361328 14.64453125 C-3.24521486 14.73932022 -19.68658338 15.2480393 -36.125 15.8125 C-36.125 16.4725 -36.125 17.1325 -36.125 17.8125 C-35.2546965 17.81836624 -34.38439301 17.82423248 -33.48771667 17.83027649 C-25.29157651 17.88814623 -17.09571053 17.96018976 -8.89983654 18.04821491 C-4.68609206 18.09296969 -0.47244541 18.1322143 3.74145508 18.15893555 C7.80704845 18.18491795 11.87226638 18.22528373 15.93762779 18.27568626 C17.48973615 18.29238942 19.0419095 18.30388219 20.59409523 18.31011391 C22.76601273 18.31971798 24.93696228 18.3477303 27.10864258 18.38012695 C28.34552322 18.39123001 29.58240387 18.40233307 30.85676575 18.41377258 C33.875 18.8125 33.875 18.8125 35.79789734 20.33952332 C36.15334122 20.82560562 36.5087851 21.31168793 36.875 21.8125 C35.95680481 21.80361755 35.03860962 21.79473511 34.09259033 21.7855835 C25.44079495 21.70544579 16.78912416 21.64453974 8.137043 21.60525131 C3.68885723 21.58437362 -0.75902194 21.55605298 -5.20703125 21.51074219 C-9.49939234 21.46729043 -13.79145848 21.44336426 -18.08402252 21.43299103 C-19.72192275 21.4255984 -21.35980677 21.41116225 -22.99758148 21.38957977 C-25.29138609 21.36055353 -27.58397106 21.35654349 -29.87792969 21.35839844 C-31.18364929 21.34951599 -32.4893689 21.34063354 -33.83465576 21.33148193 C-37.67104702 21.89232705 -38.79930095 22.78303248 -41.125 25.8125 C-42.2665622 28.0956244 -42.27834372 29.44729305 -42.33032227 31.98681641 C-42.35026749 32.84755768 -42.37021271 33.70829895 -42.39076233 34.59512329 C-42.40747482 35.52537323 -42.42418732 36.45562317 -42.44140625 37.4140625 C-42.46218735 38.36566254 -42.48296844 39.31726257 -42.50437927 40.29769897 C-42.56988133 43.34422432 -42.6287628 46.39083743 -42.6875 49.4375 C-42.73068459 51.50000916 -42.77429886 53.56250937 -42.81835938 55.625 C-42.9255634 60.68740954 -43.02682902 65.74990755 -43.125 70.8125 C-43.455 70.8125 -43.785 70.8125 -44.125 70.8125 C-44.455 58.2725 -44.785 45.7325 -45.125 32.8125 C-45.785 32.4825 -46.445 32.1525 -47.125 31.8125 C-47.17142503 39.79265683 -47.20692071 47.77275684 -47.22862434 55.75301552 C-47.23904317 59.45892751 -47.25316743 63.16474681 -47.27587891 66.87060547 C-47.29767539 70.44973024 -47.30958292 74.02876608 -47.31475449 77.60795212 C-47.31843806 78.97063979 -47.32563112 80.33332282 -47.33646011 81.69597244 C-47.3510647 83.61058012 -47.35181769 85.52527805 -47.35205078 87.43994141 C-47.356492 88.52804108 -47.36093323 89.61614075 -47.36550903 90.73721313 C-47.10753186 94.03585769 -46.29371545 96.72806517 -45.125 99.8125 C-48.72137359 96.70654099 -49.9798455 93.4696516 -50.39242554 88.75944519 C-50.40004913 87.62219498 -50.40767273 86.48494476 -50.41552734 85.31323242 C-50.42828705 84.01806198 -50.44104675 82.72289154 -50.45419312 81.38847351 C-50.45725126 79.98164012 -50.45947876 78.57480471 -50.4609375 77.16796875 C-50.46737068 75.71454234 -50.47409943 74.26111722 -50.48110962 72.80769348 C-50.49306671 69.76393637 -50.49679214 66.7202926 -50.49560547 63.67651367 C-50.49540253 59.79286811 -50.52268425 55.90995642 -50.55714989 52.02648449 C-50.5794855 49.02456889 -50.58344097 46.02282794 -50.58238602 43.02083778 C-50.58473275 41.59001452 -50.59350364 40.15918577 -50.60905075 38.72844505 C-50.68795047 30.71667671 -50.670556 24.57634079 -46.125 17.8125 C-40.39125882 13.15383529 -36.18232136 12.6852159 -28.953125 12.71484375 C-28.2707074 12.7162587 -27.58828979 12.71767365 -26.88519287 12.71913147 C-24.71508316 12.72470916 -22.5450783 12.73725746 -20.375 12.75 C-18.89974108 12.75501789 -17.42448053 12.75958029 -15.94921875 12.76367188 C-12.34111202 12.77467125 -8.73306625 12.79192047 -5.125 12.8125 C-5.15980469 12.12542969 -5.19460937 11.43835938 -5.23046875 10.73046875 C-5.25753906 9.82941406 -5.28460938 8.92835938 -5.3125 8 C-5.36470703 6.66001953 -5.36470703 6.66001953 -5.41796875 5.29296875 C-5.125 2.8125 -5.125 2.8125 -3.74609375 0.9765625 C-2.125 -0.1875 -2.125 -0.1875 0 0 Z " fill="#19098D" transform="translate(251.125,126.1875)"/>
<path d="M0 0 C3.22608355 2.10070557 4.96822615 3.91912112 6.375 7.5 C6.84524366 10.88575438 6.6875 14.3317458 6.6875 17.75 C0.4175 17.75 -5.8525 17.75 -12.3125 17.75 C-10.8125 21.75 -10.8125 21.75 -8.3125 22.75 C-3.83576748 22.92218202 0.29348974 22.60736786 4.6875 21.75 C4.6875 24.06 4.6875 26.37 4.6875 28.75 C-1.65171609 31.62729338 -8.16890334 31.83596976 -14.75 29.5625 C-18.09602793 27.19579732 -20.47979196 24.76237776 -22.0625 20.9375 C-22.82069548 14.30328953 -22.62981451 9.69828809 -19.3125 3.75 C-13.61131057 -1.66612996 -7.29636133 -2.7533439 0 0 Z M-11.125 7.0625 C-12.50433114 8.67869435 -12.50433114 8.67869435 -12.3125 10.75 C-9.0125 10.75 -5.7125 10.75 -2.3125 10.75 C-3.8114804 6.62825692 -3.8114804 6.62825692 -6.75 5.8125 C-9.3393425 5.49034284 -9.3393425 5.49034284 -11.125 7.0625 Z " fill="#010101" transform="translate(255.3125,291.25)"/>
<path d="M0 0 C3.7647859 2.45148849 5.2764566 4.51686981 6.6875 8.75 C6.6875 11.72 6.6875 14.69 6.6875 17.75 C0.4175 17.75 -5.8525 17.75 -12.3125 17.75 C-10.8125 21.75 -10.8125 21.75 -8.3125 22.75 C-3.83576748 22.92218202 0.29348974 22.60736786 4.6875 21.75 C4.6875 24.06 4.6875 26.37 4.6875 28.75 C-0.31489072 31.75382792 -5.66150314 31.22722896 -11.3125 30.75 C-16.5525851 29.06568693 -18.78961872 26.60888247 -21.3125 21.75 C-22.80439876 16.10209755 -22.21392812 11.19871605 -20.3125 5.75 C-15.63991009 -1.82281813 -8.01770231 -3.02554804 0 0 Z M-11.1875 7.0625 C-12.49740007 8.68932967 -12.49740007 8.68932967 -12.3125 10.75 C-9.0125 10.75 -5.7125 10.75 -2.3125 10.75 C-2.6425 9.43 -2.9725 8.11 -3.3125 6.75 C-7.44521678 5.54651882 -7.44521678 5.54651882 -11.1875 7.0625 Z " fill="#010101" transform="translate(287.3125,291.25)"/>
<path d="M0 0 C3.49874149 2.30598871 5.88226683 4.71547817 7.5 8.625 C8.25819548 15.25921047 8.06731451 19.86421191 4.75 25.8125 C0.11619093 30.21461862 -3.75478915 31.1683398 -9.96484375 31.09765625 C-14.42320993 30.54131312 -17.19033507 28.01832561 -20.0625 24.75 C-22.93263798 20.0671433 -22.705972 15.12664644 -22.25 9.8125 C-20.58282118 5.07420231 -18.39637955 2.6113062 -14.25 -0.1875 C-9.22141801 -1.863694 -4.90969589 -1.79392735 0 0 Z M-12.1875 8.75 C-13.62978574 12.90717653 -13.35881789 16.56897891 -12.25 20.8125 C-10.36499729 23.12813087 -10.36499729 23.12813087 -7.25 23.0625 C-4.13500271 23.12813087 -4.13500271 23.12813087 -2.25 20.8125 C-0.76119528 14.97180457 -1.61415088 11.97876428 -4.25 6.8125 C-8.70076262 6.26128014 -8.70076262 6.26128014 -12.1875 8.75 Z " fill="#010101" transform="translate(170.25,291.1875)"/>
<path d="M0 0 C0.33 0.66 0.66 1.32 1 2 C1.99 2.33 2.98 2.66 4 3 C4.33 15.54 4.66 28.08 5 41 C8.06799121 42.53399561 11.29402268 42.17947954 14.66259766 42.20532227 C15.45292892 42.21522186 16.24326019 42.22512146 17.05754089 42.23532104 C19.6763507 42.26697122 22.29517866 42.29170733 24.9140625 42.31640625 C26.72724892 42.33697274 28.54043052 42.35796913 30.35360718 42.37937927 C35.13098242 42.43463142 39.90840115 42.48402682 44.68585205 42.53222656 C49.55883668 42.58241866 54.43175798 42.63811667 59.3046875 42.69335938 C68.8697376 42.80097938 78.43484262 42.90241581 88 43 C88 43.66 88 44.32 88 45 C87.34 45 86.68 45 86 45 C86 45.66 86 46.32 86 47 C59.27 47.33 32.54 47.66 5 48 C5 53.61 5 59.22 5 65 C4.01 65.495 4.01 65.495 3 66 C3 65.34 3 64.68 3 64 C2.01 64 1.02 64 0 64 C0 42.88 0 21.76 0 0 Z " fill="#1701AB" transform="translate(203,156)"/>
<path d="M0 0 C0.74886475 0.00523682 1.49772949 0.01047363 2.26928711 0.01586914 C3.07817383 0.0190918 3.88706055 0.02231445 4.72045898 0.02563477 C5.5705957 0.03401367 6.42073242 0.04239258 7.29663086 0.05102539 C8.15063477 0.05553711 9.00463867 0.06004883 9.88452148 0.06469727 C12.00108749 0.07652166 14.11761771 0.0944577 16.23413086 0.11352539 C16.23413086 2.09352539 16.23413086 4.07352539 16.23413086 6.11352539 C14.58413086 6.77352539 12.93413086 7.43352539 11.23413086 8.11352539 C11.23413086 16.36352539 11.23413086 24.61352539 11.23413086 33.11352539 C12.88413086 33.77352539 14.53413086 34.43352539 16.23413086 35.11352539 C16.23413086 36.76352539 16.23413086 38.41352539 16.23413086 40.11352539 C9.96413086 40.11352539 3.69413086 40.11352539 -2.76586914 40.11352539 C-2.76586914 38.46352539 -2.76586914 36.81352539 -2.76586914 35.11352539 C-1.11586914 34.45352539 0.53413086 33.79352539 2.23413086 33.11352539 C2.23413086 24.86352539 2.23413086 16.61352539 2.23413086 8.11352539 C-0.24086914 7.12352539 -0.24086914 7.12352539 -2.76586914 6.11352539 C-2.80859014 4.44740634 -2.80650746 2.77969654 -2.76586914 1.11352539 C-1.76586914 0.11352539 -1.76586914 0.11352539 0 0 Z " fill="#010101" transform="translate(376.765869140625,280.886474609375)"/>
<path d="M0 0 C1.98 0 3.96 0 6 0 C6 2.31 6 4.62 6 7 C8.64 7 11.28 7 14 7 C14 9.31 14 11.62 14 14 C11.36 14 8.72 14 6 14 C6.33 18.95 6.66 23.9 7 29 C9.31 29.33 11.62 29.66 14 30 C14 32.31 14 34.62 14 37 C11.59486979 38.20256511 9.87146436 38.2703777 7.1875 38.375 C6.33542969 38.42398438 5.48335938 38.47296875 4.60546875 38.5234375 C0.64569857 37.72792145 -0.67264087 36.27569586 -3 33 C-3.59019328 29.70196912 -3.47423074 26.5241296 -3.3125 23.1875 C-3.28994141 22.30384766 -3.26738281 21.42019531 -3.24414062 20.50976562 C-3.18547428 18.3391109 -3.09579979 16.1693331 -3 14 C-4.32 14 -5.64 14 -7 14 C-7.25 11.6875 -7.25 11.6875 -7 9 C-5.69417053 7.96434215 -4.35622245 6.96873032 -3 6 C-1.24927285 2.91666413 -1.24927285 2.91666413 0 0 Z " fill="#010101" transform="translate(304,284)"/>
<path d="M0 0 C1.49102714 -0.00682262 2.98204264 -0.01706318 4.47302246 -0.03076172 C6.55331766 -0.04850361 8.63320048 -0.0529181 10.71356201 -0.05322266 C11.89313477 -0.05733154 13.07270752 -0.06144043 14.2880249 -0.06567383 C17.17840576 0.17724609 17.17840576 0.17724609 20.17840576 2.17724609 C19.51840576 2.83724609 18.85840576 3.49724609 18.17840576 4.17724609 C16.05340576 3.80224609 16.05340576 3.80224609 14.17840576 3.17724609 C13.84840576 3.83724609 13.51840576 4.49724609 13.17840576 5.17724609 C-8.27159424 5.17724609 -29.72159424 5.17724609 -51.82159424 5.17724609 C-52.15159424 3.85724609 -52.48159424 2.53724609 -52.82159424 1.17724609 C-35.2185399 0.59286075 -17.613699 0.07179048 0 0 Z " fill="#1701AB" transform="translate(266.82159423828125,139.82275390625)"/>
<path d="M0 0 C4.70588235 0.70588235 4.70588235 0.70588235 6 2 C6.21789186 6.11577589 6.18579188 10.23464923 6.18530273 14.35571289 C6.18748734 16.42550264 6.20563491 18.49475793 6.22460938 20.56445312 C6.22654297 21.86189453 6.22847656 23.15933594 6.23046875 24.49609375 C6.23457764 25.69419678 6.23868652 26.8922998 6.24291992 28.12670898 C6 31 6 31 4 33 C1.375 32.625 1.375 32.625 -1 32 C-1.02465504 27.60343827 -1.04283842 23.2069128 -1.05493164 18.81030273 C-1.05997121 17.31355082 -1.06680287 15.81680384 -1.07543945 14.32006836 C-1.08752159 12.17300193 -1.09323191 10.02600038 -1.09765625 7.87890625 C-1.10289307 6.5854126 -1.10812988 5.29191895 -1.11352539 3.95922852 C-1 1 -1 1 0 0 Z " fill="#1A0A8B" transform="translate(183,159)"/>
<path d="M0 0 C1.65 0.33 3.3 0.66 5 1 C5 11.23 5 21.46 5 32 C2.525 32.495 2.525 32.495 0 33 C-2.79619132 30.20380868 -2.25822389 28.44115287 -2.265625 24.53125 C-2.26820313 23.23832031 -2.27078125 21.94539063 -2.2734375 20.61328125 C-2.26924805 19.93861816 -2.26505859 19.26395508 -2.26074219 18.56884766 C-2.2500407 16.50783843 -2.26063943 14.44770081 -2.2734375 12.38671875 C-2.27085937 11.09378906 -2.26828125 9.80085937 -2.265625 8.46875 C-2.26336914 7.27701172 -2.26111328 6.08527344 -2.25878906 4.85742188 C-2 2 -2 2 0 0 Z " fill="#1A069A" transform="translate(313,159)"/>
<path d="M0 0 C0 14.52 0 29.04 0 44 C-0.99 44 -1.98 44 -3 44 C-5.11655788 41.88344212 -4.1886613 37.18595763 -4.203125 34.2578125 C-4.21167511 32.93884476 -4.21167511 32.93884476 -4.22039795 31.5932312 C-4.22986304 29.72867034 -4.2363879 27.86409264 -4.24023438 25.99951172 C-4.24993576 23.14390905 -4.2809428 20.28902716 -4.3125 17.43359375 C-4.31903014 15.62500429 -4.32428057 13.81640966 -4.328125 12.0078125 C-4.3404718 11.15148224 -4.3528186 10.29515198 -4.36553955 9.41287231 C-4.36253845 8.61549652 -4.35953735 7.81812073 -4.35644531 6.99658203 C-4.36009094 6.29566437 -4.36373657 5.5947467 -4.36749268 4.87258911 C-3.93485182 2.66803212 -2.57095463 0 0 0 Z " fill="#1701AB" transform="translate(297,151)"/>
<path d="M0 0 C0.33 1.32 0.66 2.64 1 4 C0.01 4 -0.98 4 -2 4 C-2 4.66 -2 5.32 -2 6 C-11.24 6.33 -20.48 6.66 -30 7 C-30.33 6.34 -30.66 5.68 -31 5 C-30.34 5 -29.68 5 -29 5 C-29.33 3.68 -29.66 2.36 -30 1 C-29.31897217 0.97494385 -28.63794434 0.9498877 -27.9362793 0.92407227 C-24.85316245 0.80809048 -21.77034954 0.68537384 -18.6875 0.5625 C-17.61564453 0.52318359 -16.54378906 0.48386719 -15.43945312 0.44335938 C-14.41142578 0.40146484 -13.38339844 0.35957031 -12.32421875 0.31640625 C-11.37635498 0.27974854 -10.42849121 0.24309082 -9.4519043 0.20532227 C-1.48744511 -0.4616209 -1.48744511 -0.4616209 0 0 Z " fill="#1701AD" transform="translate(290,223)"/>
<path d="M0 0 C3.625 0.25 3.625 0.25 5.5625 1.3125 C7.2390629 4.36976176 6.99028977 6.8406288 6.625 10.25 C5.5625 12.1875 5.5625 12.1875 3.625 13.25 C-2.40576923 13.89615385 -2.40576923 13.89615385 -5.25 12 C-6.57845668 9.93351183 -7.22963211 8.72125406 -7.375 6.25 C-4.34187556 0.32162041 -4.34187556 0.32162041 0 0 Z " fill="#18049C" transform="translate(269.375,168.75)"/>
<path d="M0 0 C1.9375 1.0625 1.9375 1.0625 3 3 C3.36528977 6.4093712 3.6140629 8.88023824 1.9375 11.9375 C-1.11976176 13.6140629 -3.5906288 13.36528977 -7 13 C-8.9375 11.9375 -8.9375 11.9375 -10 10 C-10.36528977 6.5906288 -10.6140629 4.11976176 -8.9375 1.0625 C-5.88023824 -0.6140629 -3.4093712 -0.36528977 0 0 Z " fill="#18068F" transform="translate(234,169)"/>
<path d="M0 0 C1.32 0.33 2.64 0.66 4 1 C4 9.25 4 17.5 4 26 C2.68 26 1.36 26 0 26 C0 17.42 0 8.84 0 0 Z " fill="#1701AC" transform="translate(183,161)"/>
<path d="M0 0 C2 2 2 2 2.125 5.625 C2.08375 6.73875 2.0425 7.8525 2 9 C-0.76250036 10.38125018 -2.94731099 10.19079306 -6 10 C-6.66 9.34 -7.32 8.68 -8 8 C-7.75 4.4375 -7.75 4.4375 -7 1 C-4.48718205 -0.25640898 -2.78302919 -0.20872719 0 0 Z " fill="#010101" transform="translate(330,312)"/>
<path d="M0 0 C0.66 0.33 1.32 0.66 2 1 C1.67 1.66 1.34 2.32 1 3 C-4.61 3 -10.22 3 -16 3 C-16.33 4.32 -16.66 5.64 -17 7 C-21.455 7.495 -21.455 7.495 -26 8 C-26.33 7.34 -26.66 6.68 -27 6 C-26.34 6 -25.68 6 -25 6 C-25.33 4.68 -25.66 3.36 -26 2 C-25.31897217 1.97494385 -24.63794434 1.9498877 -23.9362793 1.92407227 C-20.85316245 1.80809048 -17.77034954 1.68537384 -14.6875 1.5625 C-13.61564453 1.52318359 -12.54378906 1.48386719 -11.43945312 1.44335938 C-10.41142578 1.40146484 -9.38339844 1.35957031 -8.32421875 1.31640625 C-7.37635498 1.27974854 -6.42849121 1.24309082 -5.4519043 1.20532227 C-2.863829 1.08569813 -2.863829 1.08569813 0 0 Z " fill="#18049F" transform="translate(286,222)"/>
<path d="M0 0 C1.670625 0.061875 1.670625 0.061875 3.375 0.125 C3.045 0.785 2.715 1.445 2.375 2.125 C1.385 2.125 0.395 2.125 -0.625 2.125 C-0.295 3.115 0.035 4.105 0.375 5.125 C1.365 5.455 2.355 5.785 3.375 6.125 C3.375 7.115 3.375 8.105 3.375 9.125 C-2.77734375 10.00390625 -2.77734375 10.00390625 -4.625 10.125 C-5.625 9.125 -5.625 9.125 -5.8125 5.6875 C-5.55408081 0.77753534 -4.91598639 0.16951677 0 0 Z " fill="#1602AB" transform="translate(230.625,170.875)"/>
<path d="M0 0 C0.36601307 7.4422658 0.36601307 7.4422658 -1.3125 10 C-3 11 -3 11 -6 11 C-6 7.37 -6 3.74 -6 0 C-3.50907189 -1.24546405 -2.58919267 -0.7767578 0 0 Z " fill="#1705A3" transform="translate(253,127)"/>
<path d="M0 0 C1.41345703 0.47953125 1.41345703 0.47953125 2.85546875 0.96875 C8.480885 2.57803553 14.24745305 2.42582805 20.05664062 2.56640625 C21.35311523 2.61087891 21.35311523 2.61087891 22.67578125 2.65625 C23.45864502 2.67494141 24.24150879 2.69363281 25.0480957 2.71289062 C27 3 27 3 29 5 C25.83351345 5.08820927 22.66734908 5.1407905 19.5 5.1875 C18.613125 5.21263672 17.72625 5.23777344 16.8125 5.26367188 C10.8300047 5.32965528 6.43032714 4.57193247 1 2 C0.67 1.34 0.34 0.68 0 0 Z " fill="#180C86" transform="translate(206,226)"/>
<path d="M0 0 C1.8125 0.1875 1.8125 0.1875 4 1 C5.8125 3.375 5.8125 3.375 7 6 C6.67 6.99 6.34 7.98 6 9 C4.68 9 3.36 9 2 9 C0.4375 6.1875 0.4375 6.1875 -1 3 C-0.67 2.01 -0.34 1.02 0 0 Z " fill="#1602AB" transform="translate(238,228)"/>
<path d="M0 0 C3.875 4.75 3.875 4.75 5 7 C4.01 7 3.02 7 2 7 C2 7.99 2 8.98 2 10 C1.01 10.495 1.01 10.495 0 11 C-2.50037734 8.82575883 -3.43628586 7.26954202 -4 4 C-3.01 4.33 -2.02 4.66 -1 5 C-0.67 3.35 -0.34 1.7 0 0 Z " fill="#16049B" transform="translate(208,216)"/>
<path d="M0 0 C1.32 0.66 2.64 1.32 4 2 C4 2.66 4 3.32 4 4 C3.01 4.33 2.02 4.66 1 5 C0.26676204 7.01508358 0.26676204 7.01508358 0 9 C-1.32 8.67 -2.64 8.34 -4 8 C-4 7.01 -4 6.02 -4 5 C-3.34 5 -2.68 5 -2 5 C-1.34 3.35 -0.68 1.7 0 0 Z " fill="#1702AB" transform="translate(257,231)"/>
<path d="M0 0 C0.66 0 1.32 0 2 0 C2 0.66 2 1.32 2 2 C3.65 2 5.3 2 7 2 C6.67 3.32 6.34 4.64 6 6 C6.99 6.66 7.98 7.32 9 8 C5.41209425 7.70100785 4.21833224 7.23013399 1.6875 4.5625 C0 2 0 2 0 0 Z " fill="#1B098F" transform="translate(243,242)"/>
<path d="M0 0 C1 4 1 4 1 4 Z M-8 1 C-7.01 1 -6.02 1 -5 1 C-2.8125 3.5 -2.8125 3.5 -1 6 C-1.99 6.495 -1.99 6.495 -3 7 C-4.68762851 5.3545622 -6.3540349 3.68711423 -8 2 C-8 1.67 -8 1.34 -8 1 Z " fill="#180695" transform="translate(296,147)"/>
</svg>
